<?xml version="1.0" encoding="UTF-8"?>
<svg width="40px" height="40px" viewBox="0 0 40 40" version="1.1" xmlns="http://www.w3.org/2000/svg" xmlns:xlink="http://www.w3.org/1999/xlink">
    <!-- Generator: Sketch 46.2 (44496) - http://www.bohemiancoding.com/sketch -->
    <title>icon_domain</title>
    <desc>Created with Sketch.</desc>
    <defs></defs>
    <g id="Symbols" stroke="none" stroke-width="1" fill="none" fill-rule="evenodd">
        <g id="icon_domain">
            <rect id="Rectangle" fill="#E1CA8C" x="0" y="0" width="40" height="40" rx="4"></rect>
            <g id="资源-1" transform="translate(8.000000, 8.000000)" fill-rule="nonzero" fill="#FEFEFE">
                <path d="M17.7942857,12.8571429 L12.8571429,12.8571429 L12.8571429,19.7142857 L16.4228571,19.7142857 C17.1706936,17.4964466 17.6315812,15.1920084 17.7942857,12.8571429 Z M8.18571429,0.642857143 C5.74685108,1.45844685 3.63450492,3.03594576 2.16,5.14285714 L6.10285714,5.14285714 C6.62883701,3.57054397 7.32738323,2.06133919 8.18571429,0.642857143 L8.18571429,0.642857143 Z M5.83714286,6 L1.62,6 C0.5594548,7.82177682 0.000492151975,9.89200885 0,12 L5.03142857,12 C5.00722082,9.9714862 5.27864204,7.95026437 5.83714286,6 L5.83714286,6 Z M14.7857143,0.36 C14.1525498,0.202022509 13.5075539,0.0959565131 12.8571429,0.0428571429 L12.8571429,5.14285714 L16.9457143,5.14285714 C16.4352712,3.46198614 15.7092295,1.85432228 14.7857143,0.36 Z M18.9685714,12 L24,12 C23.9995078,9.89200885 23.4405452,7.82177682 22.38,6 L18.1628571,6 C18.721358,7.95026437 18.9927792,9.9714862 18.9685714,12 L18.9685714,12 Z M17.1428571,6 L12.8571429,6 L12.8571429,12 L17.8285714,12 C17.8810753,9.97780196 17.6502646,7.95820817 17.1428571,6 Z M21.7971429,5.14285714 C20.3293009,3.04033089 18.2265638,1.46327804 15.7971429,0.642857143 C16.661408,2.06057895 17.3657162,3.56981073 17.8971429,5.14285714 L21.7971429,5.14285714 Z M5.06571429,12.8571429 L0.0428571429,12.8571429 C0.216804477,15.3782465 1.18616904,17.7791494 2.81142857,19.7142857 L6.48857143,19.7142857 C5.67684209,17.5117844 5.19730711,15.2007725 5.06571429,12.8571429 L5.06571429,12.8571429 Z M6.17142857,12 L12,12 L12,6 L6.85714286,6 C6.34973543,7.95820817 6.11892471,9.97780196 6.17142857,12 L6.17142857,12 Z M15.8228571,23.3571429 C17.5367255,22.7858846 19.0987467,21.8334327 20.3914286,20.5714286 L17.1428571,20.5714286 C16.766278,21.5287467 16.325268,22.4594496 15.8228571,23.3571429 L15.8228571,23.3571429 Z M17.5371429,19.7142857 L21.2142857,19.7142857 C22.8395452,17.7791494 23.8089098,15.3782465 23.9828571,12.8571429 L18.9342857,12.8571429 C18.8026929,15.2007725 18.3231579,17.5117844 17.5114286,19.7142857 L17.5371429,19.7142857 Z M12.8571429,20.5714286 L12.8571429,23.9571429 C13.4984431,23.9082977 14.1347787,23.8079745 14.76,23.6571429 C15.2813344,22.6595095 15.7365994,21.6287207 16.1228571,20.5714286 L12.8571429,20.5714286 Z M7.57714286,19.7142857 L12,19.7142857 L12,12.8571429 L6.20571429,12.8571429 C6.36841879,15.1920084 6.82930643,17.4964466 7.57714286,19.7142857 L7.57714286,19.7142857 Z M7.05428571,5.14285714 L12,5.14285714 L12,0 C11.0672876,0.00345412392 10.1381581,0.11564003 9.23142857,0.334285714 C8.30001775,1.83581918 7.56814743,3.45227292 7.05428571,5.14285714 L7.05428571,5.14285714 Z M9.24857143,23.6657143 C10.1497241,23.8830414 11.0730241,23.995218 12,24 L12,20.5714286 L7.87714286,20.5714286 C8.26555874,21.6319679 8.72370173,22.6656531 9.24857143,23.6657143 L9.24857143,23.6657143 Z M3.60857143,20.5714286 C4.90149251,21.8351138 6.46323658,22.7903269 8.17714286,23.3657143 C7.67449918,22.4651873 7.23348792,21.5316181 6.85714286,20.5714286 L3.60857143,20.5714286 Z" id="Shape"></path>
            </g>
        </g>
    </g>
</svg>