<?xml version="1.0" encoding="UTF-8"?>
<svg width="40px" height="40px" viewBox="0 0 40 40" version="1.1" xmlns="http://www.w3.org/2000/svg" xmlns:xlink="http://www.w3.org/1999/xlink">
    <!-- Generator: Sketch 46.2 (44496) - http://www.bohemiancoding.com/sketch -->
    <title>icon_1 copy 6</title>
    <desc>Created with Sketch.</desc>
    <defs></defs>
    <g id="Symbols" stroke="none" stroke-width="1" fill="none" fill-rule="evenodd">
        <g id="icon_1-copy-6">
            <rect id="Rectangle" fill="#E1CA8C" x="0" y="0" width="40" height="40" rx="4"></rect>
            <g id="资源-1" transform="translate(8.000000, 9.000000)" fill-rule="nonzero" fill="#FFFFFF">
                <path d="M23.1428571,0 L0.857142857,0 C0.383755929,-3.09995469e-17 5.79731787e-17,0.410405646 0,0.916666667 L0,16.5 C5.79731787e-17,17.006261 0.383755929,17.4166667 0.857142857,17.4166667 L10.2857143,17.4166667 L10.2857143,20.1666667 L6.85714286,20.1666667 C6.38375593,20.1666667 6,20.5770723 6,21.0833333 L6,21.0833333 C6,21.5895944 6.38375593,22 6.85714286,22 L17.1428571,22 C17.6162441,22 18,21.5895944 18,21.0833333 L18,21.0833333 C18,20.5770723 17.6162441,20.1666667 17.1428571,20.1666667 L13.7142857,20.1666667 L13.7142857,17.4166667 L23.1428571,17.4166667 C23.6162441,17.4166667 24,17.006261 24,16.5 L24,0.916666667 C24,0.410405646 23.6162441,3.09995469e-17 23.1428571,0 Z M3.42857143,4.58333333 C3.42857143,4.07707231 3.81232736,3.66666667 4.28571429,3.66666667 L11.1428571,3.66666667 C11.6162441,3.66666667 12,4.07707231 12,4.58333333 L12,4.58333333 C12,5.08959435 11.6162441,5.5 11.1428571,5.5 L4.28571429,5.5 C3.81232736,5.5 3.42857143,5.08959435 3.42857143,4.58333333 Z M15.4285714,11.9166667 C15.4285714,12.4229277 15.0448155,12.8333333 14.5714286,12.8333333 L4.28571429,12.8333333 C3.81232736,12.8333333 3.42857143,12.4229277 3.42857143,11.9166667 L3.42857143,11.9166667 C3.42857143,11.4104056 3.81232736,11 4.28571429,11 L14.5714286,11 C15.0448155,11 15.4285714,11.4104056 15.4285714,11.9166667 Z M15.4285714,8.25 C15.4285714,8.75626102 15.0448155,9.16666667 14.5714286,9.16666667 L4.28571429,9.16666667 C3.81232736,9.16666667 3.42857143,8.75626102 3.42857143,8.25 L3.42857143,8.25 C3.42857143,7.74373898 3.81232736,7.33333333 4.28571429,7.33333333 L14.5714286,7.33333333 C15.0448155,7.33333333 15.4285714,7.74373898 15.4285714,8.25 Z" id="Shape"></path>
            </g>
        </g>
    </g>
</svg>