<svg id="图层_1" data-name="图层 1" xmlns="http://www.w3.org/2000/svg" viewBox="0 0 152 46"><defs><style>.cls-1{fill:#2878f0;}.cls-2,.cls-3{fill:#fff;}.cls-2{fill-rule:evenodd;}</style></defs><title>logo</title><circle class="cls-1" cx="23" cy="23" r="23"/><path class="cls-2" d="M35.89,12.44h-.54a1.19,1.19,0,0,1-1.2-1.17,2.28,2.28,0,1,0-4.56.11V22.23a3,3,0,0,1-3,3H12.76c-2.39,0-3.55-.86-4.14-1.79a.2.2,0,0,0-.36.11v1.68A11.87,11.87,0,0,0,20.38,37,12,12,0,0,0,32.09,25V16.15a.83.83,0,0,1,.83-.83h2.92C38.44,15.32,38.27,12.44,35.89,12.44Z"/><path class="cls-3" d="M70.13,17.21c-1,4.44-2.79,9.9-5.61,13.29a15.07,15.07,0,0,0-2-1.32c2.73-3.15,4.38-8.37,5.13-12.42ZM77.84,9.8V33.62c0,1.65-.45,2.34-1.47,2.76a21.59,21.59,0,0,1-5.73.42,10.6,10.6,0,0,0-.9-2.4c2.19.06,4.29.06,4.89,0s.84-.21.84-.81V9.8Zm6.87,6.63c2.61,4.2,5.13,9.66,5.88,13.2l-2.31,1.05a50.22,50.22,0,0,0-5.64-13.35Z"/><path class="cls-3" d="M107.9,22.16a32.29,32.29,0,0,1-3.27,7.5c.45,2.82,1,4.47,1.8,4.53.42,0,.75-1.41.93-3.78a4.5,4.5,0,0,0,1.35,1.11c-.54,4-1.44,5-2.31,5-1.5-.06-2.46-1.77-3.15-4.77A22.48,22.48,0,0,1,100.43,35a6.13,6.13,0,0,0-1.38-1.23,22,22,0,0,0,3.75-4.62,93.2,93.2,0,0,1-.72-9.42H98.81v4.68l2.13-.87.36,1.86-2.49,1.11v7.83c0,1.11-.21,1.65-.9,2a7.14,7.14,0,0,1-3.15.39,7.29,7.29,0,0,0-.6-2c1,0,2,0,2.28,0s.42-.12.42-.45v-7l-2.73,1.2-.69-2c1-.33,2.13-.78,3.42-1.32V19.7H93.8V17.75h3.06V13.19c-.81.27-1.62.48-2.37.69a8.81,8.81,0,0,0-.72-1.65,24.7,24.7,0,0,0,5.88-2.37l1.71,1.56a18.09,18.09,0,0,1-2.55,1.14v5.19H102c-.09-2.46-.12-5.1-.15-7.86h1.86c0,2.76,0,5.4.09,7.86h4.38V19.7h-4.35c.06,2.52.21,4.77.39,6.75a35.17,35.17,0,0,0,2-5.28Zm-1.8-5.49a21.63,21.63,0,0,0-1.77-5.25l1.56-.45a21,21,0,0,1,1.86,5.13Zm2,12h9.09v1.77h-9.09Zm12.3-4.41s0,.66,0,.93c-.27,7.26-.57,9.78-1.29,10.68a2.36,2.36,0,0,1-1.83.84,28.34,28.34,0,0,1-3.21,0,4.19,4.19,0,0,0-.57-1.86c1.32.12,2.49.12,3,.12s.69,0,.93-.3c.48-.57.78-2.79,1-8.67h-9V12.14h2.94a30.09,30.09,0,0,0,.84-2.94l2,.36c-.36.87-.72,1.8-1.08,2.58h5.37s0,.57,0,.84c-.21,5.82-.42,7.95-1,8.64a2.06,2.06,0,0,1-1.56.75,21.28,21.28,0,0,1-2.73,0,4,4,0,0,0-.48-1.65c1.08.09,2,.12,2.43.12a.83.83,0,0,0,.78-.3c.33-.45.57-2.13.72-6.63h-6.3V24.23Zm-7.08-9.15a29.17,29.17,0,0,1,3.06,3.15L115,19.4a30.83,30.83,0,0,0-3-3.3Z"/><path class="cls-3" d="M130.79,31.13c.6.33,1.23.9,2.28,1.53,2,1.23,4.53,1.47,7.86,1.47,3.51,0,8-.27,11.07-.57a9.14,9.14,0,0,0-.63,2.19c-2.07.12-7.29.3-10.5.3-3.66,0-6.15-.36-8.25-1.65-1.17-.72-2.22-1.71-2.91-1.71-1,0-2.49,1.71-4,3.72l-1.41-1.83a15,15,0,0,1,4.32-3.51V22.61h-4.2v-2.1h6.36Zm-.63-14.22a42.88,42.88,0,0,0-5.1-5.13l1.56-1.26a43.47,43.47,0,0,1,5.16,4.92Zm5.94,15.36H134V16.82h8.49c-1.83-.9-4-1.86-5.82-2.55L138,13c1.32.48,2.88,1.11,4.35,1.74a26.81,26.81,0,0,0,4.23-2.55H134V10.43h14.64l.45-.12,1.35,1.05a26.25,26.25,0,0,1-6.12,4.29,24.66,24.66,0,0,1,2.22,1.17h3.93V30c0,1.11-.24,1.62-1,1.95a12.07,12.07,0,0,1-4.05.36,7.08,7.08,0,0,0-.6-1.86c1.41.06,2.67,0,3,0s.51-.12.51-.51V27.26h-5.22v4.89h-2V27.26h-5Zm0-13.74v2.64h5V18.53Zm5,7V22.82h-5v2.73Zm2-7v2.64h5.22V18.53Zm5.22,7V22.82h-5.22v2.73Z"/></svg>