<?xml version="1.0" encoding="UTF-8"?>
<svg width="16px" height="16px" viewBox="0 0 16 16" version="1.1" xmlns="http://www.w3.org/2000/svg" xmlns:xlink="http://www.w3.org/1999/xlink">
    <!-- Generator: Sketch 46.2 (44496) - http://www.bohemiancoding.com/sketch -->
    <title>icon_video</title>
    <desc>Created with Sketch.</desc>
    <defs></defs>
    <g id="Symbols" stroke="none" stroke-width="1" fill="none" fill-rule="evenodd">
        <g id="icon_video">
            <rect id="Rectangle-6" opacity="0.212692482" x="0" y="0" width="16" height="16"></rect>
            <path d="M13.5,3.08474467 L10.15,3.08474467 L11.5,0.797826926 C11.65,0.544457374 11.6,0.240413913 11.4,0.0883921821 C11.15,-0.0636295486 10.85,-0.0129556384 10.7,0.189740003 L9,2.98339685 C9,3.03407076 8.95,3.03407076 8.95,3.08474467 L6.85,3.08474467 C6.85,3.03407076 6.85,3.03407076 6.8,2.98339685 L5.1,0.189740003 C4.95,-0.0129556384 4.6,-0.0636295486 4.4,0.0883921821 C4.2,0.240413913 4.15,0.544457374 4.3,0.797826926 L5.65,3.08474467 L2.5,3.08474467 C1.1,3.08474467 0,4.1995707 0,5.61844018 L0,12.6033429 C0,14.0222124 1.1,15.1370384 2.5,15.1370384 L13.5,15.1370384 C14.9,15.1370384 16,14.0222124 16,12.6033429 L16,5.61844018 C16,4.1995707 14.9,3.08474467 13.5,3.08474467 Z M9.3898881,9.52262137 C9.07130403,9.75699637 8.61112704,10.0304339 8.08015359,10.3819964 C7.76156951,10.5773089 7.5137819,10.7726214 7.30139252,10.8898089 C7.1597996,10.9679339 7.01820668,11.0851214 6.98280845,11.0851214 L6.94741022,11.0851214 L6.91201199,11.1241839 C6.84121553,11.1632464 6.77041907,11.2023089 6.66422438,11.2023089 C6.38103854,11.2023089 6.13325093,10.9288714 6.13325093,10.5773089 L6.13325093,6.86637137 C6.13325093,6.51480887 6.38103854,6.20230887 6.66422438,6.20230887 C6.73502084,6.20230887 6.84121553,6.24137137 6.94741022,6.28043387 C6.98280845,6.31949637 7.12440137,6.39762137 7.30139252,6.51480887 C7.5137819,6.67105887 7.76156951,6.82730887 8.00935713,6.98355887 C8.96510934,7.56949637 9.70847217,8.03824637 9.85006509,8.15543387 C9.99165801,8.23355887 10.0978527,8.46793387 10.1332509,8.66324637 C10.1332509,8.89762137 10.0270562,9.09293387 9.88546332,9.21012137 C9.81466686,9.24918387 9.67307394,9.32730887 9.3898881,9.52262137 Z" fill="#C8C8C8" fill-rule="nonzero"></path>
        </g>
    </g>
</svg>