<?xml version="1.0" encoding="UTF-8"?>
<svg width="16px" height="16px" viewBox="0 0 16 16" version="1.1" xmlns="http://www.w3.org/2000/svg" xmlns:xlink="http://www.w3.org/1999/xlink">
    <!-- Generator: Sketch 46.2 (44496) - http://www.bohemiancoding.com/sketch -->
    <title>icon_voice</title>
    <desc>Created with Sketch.</desc>
    <defs></defs>
    <g id="Symbols" stroke="none" stroke-width="1" fill="none" fill-rule="evenodd">
        <g id="icon_voice">
            <rect id="Rectangle-6" opacity="0.212692482" x="0" y="0" width="16" height="16"></rect>
            <path d="M8,10 C9.65700224,10 11,8.65700224 11,7 L11,3 C11,1.34349888 9.65698434,0 8,0 C6.34299776,0 5,1.34349888 5,3 L5,7 C5,8.65700224 6.34348098,10 8,10 Z M14,6.79575617 C14,6.35315659 13.6334539,6 13.1818217,6 C12.73017,6 12.3636435,6.35315659 12.3636435,6.78942659 C12.3625306,9.11456726 10.409805,10.9986719 8,10.9997268 C5.59015593,10.9986719 3.63744989,9.11456726 3.63635654,6.78942659 C3.63635654,6.35315659 3.27033764,6 2.81817827,6 C2.36597985,6 2,6.35315659 2,6.78942659 C2,9.72296036 4.25654058,12.1359993 7.18182173,12.5196547 L7.18182173,14.421128 L4.45453481,14.421128 C4.00233639,14.421128 3.63635654,14.7747744 3.63635654,15.2105546 C3.63635654,15.6463348 4.00233639,16 4.45453481,16 L11.5454652,16 C11.9970974,16 12.3636435,15.6463536 12.3636435,15.2105734 C12.3636435,14.7747932 11.9970974,14.4211468 11.5454652,14.4211468 L8.81817827,14.4211468 L8.81817827,12.5196547 C11.7439866,12.1359993 14,9.72296036 14,6.79575617 Z" fill="#C8C8C8" fill-rule="nonzero"></path>
        </g>
    </g>
</svg>