<?xml version="1.0" encoding="UTF-8"?>
<svg width="16px" height="16px" viewBox="0 0 16 16" version="1.1" xmlns="http://www.w3.org/2000/svg" xmlns:xlink="http://www.w3.org/1999/xlink">
    <!-- Generator: Sketch 46.2 (44496) - http://www.bohemiancoding.com/sketch -->
    <title>icon_ppt_pre</title>
    <desc>Created with Sketch.</desc>
    <defs></defs>
    <g id="Symbols" stroke="none" stroke-width="1" fill="none" fill-rule="evenodd">
        <g id="icon_ppt_pre">
            <rect id="Rectangle-6" opacity="0.212692482" x="0" y="0" width="16" height="16"></rect>
            <path d="M15,3.62785283 L15,14.7585472 C15,15.4441856 14.4353535,16 13.73882,16 L2.26117996,16 C1.56464646,16 1,15.4441856 1,14.7585472 L1,1.24145281 C1,0.555814367 1.56464646,0 2.26117996,0 L11.3676136,0 L11.3676136,2.63467986 C11.3676136,3.18318346 11.8193308,3.62783496 12.3765503,3.62783496 L15,3.62783496 L15,3.62785283 Z" id="Shape" fill="#C8C8C8" fill-rule="nonzero"></path>
            <path d="M11.3649292,0 L11.3649292,2.99919128 C11.3649292,3.380977 11.6774052,3.690477 12.0628799,3.690477 L14.9995728,3.638375 L11.3649292,0 Z" id="Shape" fill="#C8C8C8" fill-rule="nonzero"></path>
            <path d="M10.6122947,6.0110669 C10.3492579,5.58805388 9.9870585,5.30885097 9.53577244,5.18133024 C9.10992546,5.06096595 8.57779964,5 7.95415961,5 L5,5 L5,13 L6.31588246,13 L6.31588246,9.93575402 L8.03596373,9.93575402 C8.97820753,9.93575402 9.71324748,9.72082265 10.220566,9.29682135 C10.7380602,8.86498207 11.0003322,8.22863934 10.9999997,7.40541162 C10.9999664,6.8939656 10.8694789,6.42494697 10.6122947,6.0110669 L10.6122947,6.0110669 Z M9.64876854,7.43669543 C9.64876854,7.8505755 9.53417626,8.15489406 9.29850724,8.36788298 C9.05964586,8.58281435 8.63825488,8.69206914 8.04613936,8.69206914 L6.31621499,8.69206914 L6.31621499,6.24392343 L8.02578809,6.24392343 C8.44079436,6.24392343 8.7604955,6.27360556 8.97644508,6.33262905 C9.16708858,6.38449611 9.32241665,6.50843862 9.45050993,6.71096552 C9.58399031,6.92300025 9.64876854,7.16045733 9.64876854,7.43669543 L9.64876854,7.43669543 Z" id="Shape" fill="#FFFFFF" fill-rule="nonzero"></path>
        </g>
    </g>
</svg>